Coordinates
version=1
nRows=16
nColumns=40
inDegrees=yes

Units are S.I. units (second, meters, Newtons, ...)
Angles are in degrees.

endheader
time	pelvis_tilt	pelvis_list	pelvis_rotation	pelvis_tx	pelvis_ty	pelvis_tz	hip_flexion_r	hip_adduction_r	hip_rotation_r	knee_angle_r	knee_angle_r_beta	ankle_angle_r	subtalar_angle_r	mtp_angle_r	hip_flexion_l	hip_adduction_l	hip_rotation_l	knee_angle_l	knee_angle_l_beta	ankle_angle_l	subtalar_angle_l	mtp_angle_l	lumbar_extension	lumbar_bending	lumbar_rotation	arm_flex_r	arm_add_r	arm_rot_r	elbow_flex_r	pro_sup_r	wrist_flex_r	wrist_dev_r	arm_flex_l	arm_add_l	arm_rot_l	elbow_flex_l	pro_sup_l	wrist_flex_l	wrist_dev_l
      0.00000000	     -4.33676105	      0.25209971	      1.95245994	     -1.15184219	      0.88024275	     -1.38691454	     -2.65824079	     -1.05445409	     -5.67683101	    -27.39898876	     -0.47820257	     12.84754700	     -1.80286774	     -3.37030756	     31.37123629	      4.33765054	      9.77685937	    -31.15575815	     -0.54377056	      0.82208558	     11.87953094	      0.71845015	      0.37525468	     -3.46369531	      4.06084038	      2.03657432	     -9.02816994	    -11.85050012	     31.10801350	     89.95437384	      0.00000000	      0.00000000	     -6.55007157	      8.49879593	     20.43701250	     23.53418219	     89.95437384	      0.00000000	      0.00000000
      0.01000000	     -4.41613357	      0.23312334	      2.06715150	     -1.14383060	      0.88052899	     -1.38942117	     -2.72210433	     -1.14504408	     -5.46745389	    -28.03662416	     -0.48933140	     12.38812052	     -1.74574461	     -3.29861100	     31.13512767	      4.16549046	      9.55330736	    -31.50844248	     -0.54992606	      0.74337903	     11.48928504	      0.71637827	      0.68494804	     -3.59551516	      3.89215175	      1.47533575	     -8.99395120	    -11.81088510	     31.09131242	     89.95437384	      0.00000000	      0.00000000	     -6.57434982	      8.59126594	     20.37388793	     23.85776238	     89.95437384	      0.00000000	      0.00000000
      0.02000000	     -4.20829865	      0.47795464	      2.04095534	     -1.13666526	      0.88134526	     -1.39192160	     -2.42832012	     -1.66677114	     -5.55974118	    -29.84929685	     -0.52096851	     11.16950022	     -2.31178331	     -3.09352581	     30.49967038	      3.67381401	      9.26449469	    -31.82181866	     -0.55539551	      1.48966433	     11.48471518	      0.79674804	      0.53156437	     -3.97459746	      3.72577488	      1.51510613	     -8.85597975	    -11.90776971	     30.44963650	     89.95437384	      0.00000000	      0.00000000	     -6.27538208	      8.72061374	     20.28262911	     23.75226609	     89.95437384	      0.00000000	      0.00000000
      0.03000000	     -4.33260549	      0.95580271	      2.19831589	     -1.12933681	      0.88193065	     -1.39495459	     -1.87865703	     -2.41273103	     -5.60306765	    -31.49180816	     -0.54963574	      9.89200101	     -3.27165937	     -2.75778139	     30.02509921	      2.63912905	      8.61748320	    -31.67580729	     -0.55284713	      1.93830990	     12.82292378	      1.67186028	      0.76180170	     -4.62523686	      3.41540862	      1.20925022	     -8.67298188	    -12.17854121	     30.23705573	     89.95437384	      0.00000000	      0.00000000	     -6.13307756	      8.80061110	     20.46285861	     23.88264216	     89.95437384	      0.00000000	      0.00000000
      0.04000000	     -4.20268128	      0.93304906	      2.25694281	     -1.12221689	      0.88276831	     -1.39737686	     -1.43868363	     -2.61655793	     -5.75936358	    -33.27695242	     -0.58079238	      8.48169463	     -3.49904613	     -2.49815253	     29.47598970	      2.48576968	      8.52730486	    -31.91414572	     -0.55700692	      2.44323436	     12.49725676	      1.74916207	      0.69248266	     -4.71787752	      3.21553127	      0.96297964	     -8.65963129	    -12.06355349	     30.05174834	     89.95437384	      0.00000000	      0.00000000	     -5.93833523	      8.88915193	     20.35839029	     24.14829649	     89.95437384	      0.00000000	      0.00000000
      0.05000000	     -4.19363725	      1.05926564	      2.40086935	     -1.11523971	      0.88356480	     -1.40021353	     -0.71111378	     -3.02210096	     -5.97881240	    -35.21825065	     -0.61467443	      6.68410011	     -4.02304929	     -2.09914845	     28.99031294	      2.10775440	      8.49688474	    -32.00043257	     -0.55851291	      2.90600227	     12.37840594	      1.89998668	      0.73008799	     -4.94847495	      2.91148810	      0.69913363	     -8.61734196	    -11.97922180	     29.90873777	     89.95437384	      0.00000000	      0.00000000	     -5.73002869	      8.94492030	     20.30164805	     24.32241458	     89.95437384	      0.00000000	      0.00000000
      0.06000000	     -4.03248073	      0.98306550	      2.60333041	     -1.10862651	      0.88446358	     -1.40281492	     -0.03891294	     -3.07006677	     -5.95762724	    -37.30189088	     -0.65104081	      5.24736795	     -4.21320677	     -1.84338503	     28.39839770	      1.97878697	      8.41972685	    -32.10585132	     -0.56035281	      3.19951430	     12.01828480	      1.92499050	      0.50177261	     -4.95441229	      2.48756377	      0.43266787	     -8.60817016	    -11.82241584	     29.95821170	     89.95437384	      0.00000000	      0.00000000	     -5.50116066	      9.00576498	     20.18438292	     24.65641647	     89.95437384	      0.00000000	      0.00000000
      0.07000000	     -4.18448870	      1.30453692	      2.68338855	     -1.10169065	      0.88503514	     -1.40573939	      1.14890077	     -3.79704535	     -6.36463599	    -39.58477784	     -0.69088471	      2.52242261	     -5.39496431	     -1.12743154	     27.92228819	      1.38877744	      8.55395473	    -31.97167530	     -0.55801100	      3.87494845	     12.24961965	      2.13605153	      0.75037698	     -5.38099639	      2.32709404	      0.13180695	     -8.64055696	    -11.43568068	     29.70649286	     89.95437384	      0.00000000	      0.00000000	     -5.21329005	      9.09360431	     20.04728878	     24.74857317	     89.95437384	      0.00000000	      0.00000000
      0.08000000	     -3.94513518	      1.09212441	      2.88891023	     -1.09536122	      0.88598954	     -1.40827007	      1.90071387	     -3.71094810	     -6.40038442	    -41.72948641	     -0.72831693	      0.96515568	     -5.56644852	     -0.85170330	     27.22370202	      1.43211763	      8.49604997	    -31.99015242	     -0.55833349	      4.05473646	     11.92277442	      2.15557615	      0.39747698	     -5.19735217	      1.90693845	     -0.05706879	     -8.65102228	    -11.31793087	     29.79975139	     89.95437384	      0.00000000	      0.00000000	     -4.93589670	      9.13259313	     19.84905062	     25.15005090	     89.95437384	      0.00000000	      0.00000000
      0.09000000	     -4.22885272	      1.36366989	      2.89572260	     -1.08962137	      0.88627216	     -1.41097574	      3.51920957	     -4.18753575	     -6.19918955	    -44.14242898	     -0.77043073	     -2.16775381	     -8.04157160	      0.59253165	     26.96733166	      0.83781594	      8.44626169	    -31.76816039	     -0.55445900	      4.58712858	     12.40832401	      2.70178821	      0.61679852	     -5.54742304	      1.85551231	     -0.24827760	     -8.73281009	    -11.03235047	     29.61738973	     89.95437384	      0.00000000	      0.00000000	     -4.49213113	      9.21809788	     19.56382823	     25.35837659	     89.95437384	      0.00000000	      0.00000000
      0.10000000	     -3.92745284	      1.16512019	      2.94515258	     -1.08319305	      0.88721151	     -1.41314586	      4.28921501	     -4.15110990	     -6.25268057	    -46.22617705	     -0.80679899	     -3.56875460	     -8.03686773	      0.85256505	     26.17150248	      0.95156518	      8.42520915	    -31.82644658	     -0.55547628	      4.97059066	     11.92137544	      2.66651594	      0.23192838	     -5.36753851	      1.64614611	     -0.46840001	     -8.81069232	    -10.76101035	     29.54329810	     89.95437384	      0.00000000	      0.00000000	     -4.14593826	      9.26655637	     19.35967139	     25.70127755	     89.95437384	      0.00000000	      0.00000000
      0.11000000	     -4.02487151	      1.30646664	      2.87424366	     -1.07729138	      0.88753773	     -1.41534332	      5.69081624	     -4.37969254	     -5.85064571	    -48.45641751	     -0.84572403	     -5.40134877	     -9.57517588	      1.86119615	     25.75197858	      0.70497687	      8.71475052	    -31.74650861	     -0.55408110	      5.48219288	     11.76380713	      2.89907908	      0.26855469	     -5.55193822	      1.53792475	     -0.65112187	     -8.89479320	    -10.21523227	     29.51999010	     89.95437384	      0.00000000	      0.00000000	     -3.82221174	      9.40744427	     18.97733839	     26.03645114	     89.95437384	      0.00000000	      0.00000000
      0.12000000	     -3.69578944	      1.03322542	      3.07750059	     -1.07137686	      0.88840848	     -1.41759811	      6.43561217	     -4.17964328	     -5.95779939	    -50.34486685	     -0.87868369	     -5.71468739	     -9.63425915	      1.92034460	     24.98581325	      0.85668338	      8.70922531	    -31.75986879	     -0.55431428	      5.75785516	     11.40042398	      2.84016051	     -0.24097577	     -5.26262270	      1.14406070	     -0.72990660	     -8.94122366	    -10.14045349	     29.53889620	     89.95437384	      0.00000000	      0.00000000	     -3.38770398	      9.45590706	     18.77603066	     26.38850698	     89.95437384	      0.00000000	      0.00000000
      0.13000000	     -3.61499899	      1.28466724	      3.00506681	     -1.06558868	      0.88877077	     -1.41979812	      7.69195708	     -4.62375177	     -5.96214469	    -52.50801669	     -0.91643777	     -5.84725048	    -11.46803138	      2.44565525	     24.37092941	      0.46405438	      8.91243444	    -31.71679131	     -0.55356244	      6.69234377	     11.28215148	      2.79127702	     -0.44086532	     -5.53850629	      1.09202087	     -0.84016784	     -8.99476530	     -9.88582467	     29.39198096	     89.95437384	      0.00000000	      0.00000000	     -2.96740880	      9.59389622	     18.39934931	     26.75319533	     89.95437384	      0.00000000	      0.00000000
      0.14000000	     -3.35652940	      1.02583261	      3.19354429	     -1.06001757	      0.88950029	     -1.42183015	      8.58615880	     -4.53305846	     -6.42787224	    -54.18020325	     -0.94562294	     -5.67654601	    -11.92084717	      2.50925061	     23.66860910	      0.64646013	      9.01281907	    -31.62961312	     -0.55204089	      6.77298814	     11.02080052	      2.75955954	     -0.89835001	     -5.24732056	      0.69469362	     -0.88898333	     -9.00270044	     -9.83351494	     29.42855796	     89.95437384	      0.00000000	      0.00000000	     -2.51484485	      9.66676108	     18.24077577	     27.12800343	     89.95437384	      0.00000000	      0.00000000
      0.15000000	     -3.33212708	      1.29970925	      3.27696206	     -1.05446804	      0.88976940	     -1.42400343	      9.81058810	     -4.96097415	     -6.64431581	    -55.88529702	     -0.97538244	     -5.25463728	    -14.20107100	      3.14809032	     23.16759213	      0.13900095	      8.92751530	    -31.62662529	     -0.55198874	      7.38094593	     10.81826126	      2.70721463	     -1.07493791	     -5.56830945	      0.47883092	     -0.96334089	     -8.99115495	     -9.72154646	     29.27064906	     89.95437384	      0.00000000	      0.00000000	     -2.11864518	      9.82885383	     17.91653499	     27.57289284	     89.95437384	      0.00000000	      0.00000000
